# xmcd
#
# Track frame offsets:
#	150
#	13573
#	26558
#	39075
#	51345
#	64698
#	78443
#	91800
#	105853
#	120430
#	134445
#	149455
#	163420
#	177690
#	205275
#	217763
#
# Disc length: 3091 seconds
#
# Revision: 1
# Processed by: cddbd v1.5.1PL0 Copyright (c) Steve Scherf et al.
# Submitted via: audiograbber 1.83.01
#
DISCID=d60c1110
DTITLE=Various Artist - Rural String Bands of Virginia
DYEAR=1993
DGENRE=Old Time
TTITLE0=J.P. Nestor - Train On The Island
TTITLE1=Bull Mountain Moonshiners - Johnny Goodwin
TTITLE2=Crockett Ward and His Boys - Sugar Hill
TTITLE3=Dr. Lloyd and Howard Maxey - The Girl I Left Behind Me
TTITLE4=Patterson's Piedmont Log Rollers - The Sweet Sunny South
TTITLE5=Salem Highballers - Going On To Town
TTITLE6=Grant Brothers - The Johnson Boys
TTITLE7=Blue Ridge Highballers - Soldier's Joy
TTITLE8=Kelly Harrell and The Virginia String Band - My Name Is John Johanna
TTITLE9=Roanoke Jug Band - Triangle Blues
TTITLE10=Uncle Eck Dunford and Hattie Stoneman - What Will I Do, For My Money Is 
TTITLE10=All Gone
TTITLE11=Spangler and Pearson - Midnight Serenade
TTITLE12=Floyd County Ramblers - Aunt Dinah's Quilting Party
TTITLE13=Fiddlin' Powers Family - Old Virginia Reel
TTITLE14=Bela Lam and The Greene County Singers - See That My Grave Is Kept Green
TTITLE15=Dad Blackard's Moonshiners - Suzanna Gal
EXTD=County CD-3502
EXTT0=
EXTT1=
EXTT2=
EXTT3=
EXTT4=
EXTT5=
EXTT6=
EXTT7=
EXTT8=
EXTT9=
EXTT10=
EXTT11=
EXTT12=
EXTT13=
EXTT14=
EXTT15=
PLAYORDER=
